<svg xmlns="http://www.w3.org/2000/svg" data-name="Layer 1" viewBox="0 0 512 512"><path d="M511.73,404.61q-.24-3.36-.71-6.68a99.95,99.95,0,0,0-90-85.46l.07-44.73a27.24,27.24,0,0,0,21.05-48.53l-22-16.79a7.49,7.49,0,0,0,1-3.74V132.35a18.83,18.83,0,0,0-19-18.62h-37a18.83,18.83,0,0,0-19,18.62V146L236.93,62.63a17.36,17.36,0,0,0-21,0L10.71,219.21a27.32,27.32,0,0,0-5.18,38.15,27,27,0,0,0,18,10.52,27.35,27.35,0,0,0,3.72.25,27,27,0,0,0,5.31-.55L32.2,478a33.94,33.94,0,0,0,33.93,34H401.81a7.15,7.15,0,0,0,2-.27c2.74.23,5.51.34,8.29.34A100,100,0,0,0,511,426.14q.47-3.31.71-6.68.27-3.7.27-7.46C512,409.52,511.91,407.05,511.73,404.61ZM361.14,132.35a3.82,3.82,0,0,1,4-3.62h37a3.82,3.82,0,0,1,4,3.62v57.31l-3.6-.67-41.4-31.59ZM34.53,250.64a12.14,12.14,0,0,1-17-2.34,12.29,12.29,0,0,1,2.32-17.17L225,74.55a2.33,2.33,0,0,1,2.81,0L394.69,201.87h0L433,231.13a12.29,12.29,0,0,1,2.33,17.17,12.14,12.14,0,0,1-17,2.34L231,107.68a7.53,7.53,0,0,0-9.1,0ZM200,387h-13.7a7.5,7.5,0,1,0,0,15H200v94.91H92.52V292.1H200Zm15,109.91V284.6a7.5,7.5,0,0,0-7.5-7.5H85a7.5,7.5,0,0,0-7.5,7.5V496.93H66.13A18.91,18.91,0,0,1,47.2,478l.35-218.4L226.42,123.08,406.09,260.17l-.08,52.1a98.14,98.14,0,0,0-44.78,13.66V284.6a7.5,7.5,0,0,0-7.5-7.5H246.25a7.5,7.5,0,0,0-7.5,7.5V385.92a7.5,7.5,0,0,0,7.5,7.5h67.61c-.07.37-.13.73-.19,1.1a5.4,5.4,0,0,0-.1.58c-.09.51-.17,1-.25,1.52l-.15,1c-.08.59-.16,1.18-.23,1.77,0,.14,0,.28-.06.43-.08.7-.16,1.4-.23,2.1,0,.11,0,.23,0,.35-.07.79-.14,1.58-.2,2.38s-.09,1.34-.12,2c-.1,1.79-.15,3.58-.15,5.38q0,3.75.27,7.46.24,3.36.71,6.68a99.11,99.11,0,0,0,28.29,56.59,100.47,100.47,0,0,0,17.83,14.2ZM307.49,328.2V292.1h38.74v36.1Zm32.18,15a99.4,99.4,0,0,0-21.75,35.22H307.49V343.2Zm-85.92-15V292.1h38.74v36.1Zm38.74,15v35.22H253.75V343.2Zm204.28,75.14c-.09,1.27-.22,2.53-.36,3.79a85,85,0,0,1-84.34,74.8,87.23,87.23,0,0,1-15.24-1.35,85,85,0,0,1-69.1-73.45c-.14-1.26-.27-2.52-.36-3.79q-.22-3.15-.23-6.34c0-.68,0-1.37,0-2.05,0-.46,0-.92.05-1.38s0-.73,0-1.1,0-.47.05-.71q0-.7.09-1.41c0-.4.06-.8.1-1.19s.05-.55.08-.82c.06-.6.13-1.2.2-1.79s.18-1.39.28-2.08.21-1.37.33-2.06.25-1.36.38-2,.28-1.36.43-2h0a84.09,84.09,0,0,1,17-34.91l0,0q2.7-3.3,5.76-6.36a85.41,85.41,0,0,1,8.83-7.7,85,85,0,0,1,135.56,57.61c.15,1.26.27,2.53.36,3.8.15,2.07.23,4.17.23,6.27S496.92,416.24,496.77,418.34Zm-43.18-55a7.5,7.5,0,0,0-7.5-7.5H378.68a7.5,7.5,0,1,0,0,15h23.24A21,21,0,0,1,421.29,384H378.68a7.5,7.5,0,0,0,0,15h43a21,21,0,0,1-19.72,14H379.11a7.49,7.49,0,0,0-6.05,12.82l51.1,49.64a7.5,7.5,0,1,0,10.45-10.75L396.82,428h5.1a36,36,0,0,0,35.25-29h8.92a7.5,7.5,0,0,0,0-15H437a36,36,0,0,0-5.9-13.09h15A7.5,7.5,0,0,0,453.59,363.36ZM263.92,206.7a37.5,37.5,0,1,0-37.5,37.5A37.54,37.54,0,0,0,263.92,206.7Zm-37.5,22.5a22.5,22.5,0,1,1,22.5-22.5A22.53,22.53,0,0,1,226.42,229.2Z"/></svg>