<svg xmlns="http://www.w3.org/2000/svg" data-name="Layer 1" viewBox="0 0 512 512"><path d="M298.6,156.83a2.28,2.28,0,0,0,0,.26c0,.16,0,.31,0,.46s0,.2.05.3a4,4,0,0,0,.09.48l.06.26c0,.17.09.33.15.49l.09.25c.06.15.12.31.19.46l.12.25.23.43.15.24.27.39.18.24.31.36.19.22.4.37.14.13.05,0h0L330,186.62a7.5,7.5,0,1,0,9.66-11.48l-13-11H413.5a23.52,23.52,0,0,1,23.5,23.5v73.7a7.5,7.5,0,0,0,15,0v-73.7a38.54,38.54,0,0,0-38.5-38.5H325.44l14.26-13a7.5,7.5,0,0,0-10.12-11.08L301,151.14a.94.94,0,0,0-.1.1c-.12.11-.22.22-.33.34a2.09,2.09,0,0,0-.2.22c-.11.12-.21.25-.31.38s-.11.14-.16.22-.2.31-.3.47l-.1.17a7.69,7.69,0,0,0-.8,2.18c0,.05,0,.11,0,.17a5.81,5.81,0,0,0-.09.58c0,.11,0,.21,0,.32s0,.26,0,.39v.15ZM175,158.89h-18.5a7.5,7.5,0,0,0-6,12.84l41.6,40.41a7.5,7.5,0,0,0,10.45-10.76l-28.3-27.49H175a30.71,30.71,0,0,0,29.81-23.62H211a7.5,7.5,0,0,0,0-15h-6.32a30.63,30.63,0,0,0-3.32-7.87H211a7.5,7.5,0,0,0,0-15H156.1a7.5,7.5,0,0,0,0,15H175a15.63,15.63,0,0,1,13.53,7.87H156.1a7.5,7.5,0,0,0,0,15H189A15.64,15.64,0,0,1,175,158.89Zm220.43,258a30,30,0,1,0,21.23,8.79A29.83,29.83,0,0,0,395.45,416.9Zm10.62,40.65a15,15,0,1,1,4.4-10.62A14.93,14.93,0,0,1,406.07,457.55ZM504.5,497H437c1.53-1.28,3-2.63,4.46-4.06a64.64,64.64,0,0,0,18.62-38.52h14.33A37.61,37.61,0,0,0,512,417.05L512,405.5a8,8,0,0,0-.09-1.19l-8.43-53.93c0-.25-.07-.46-.1-.63A37.43,37.43,0,0,0,475,319.54l-86.83-20.45-.13,0-.1,0-2.13-.5-87.43-76.45a37.55,37.55,0,0,0-24.7-9.27H246.53a82.75,82.75,0,1,0-126.51,0H76A37.41,37.41,0,0,0,42.57,233.3L10.69,295.83a37.58,37.58,0,0,0-4,14.09L3.51,350.45c0,.1,0,.19,0,.28L.11,393.31v.2c0,.51-.07,1-.08,1.43,0,0,0,0,0,0v.2a37.78,37.78,0,0,0,4.53,19l11.21,20.62a37.49,37.49,0,0,0,33,19.61H60.48A64.64,64.64,0,0,0,79.1,492.94q2.15,2.15,4.46,4.06H7.5a7.5,7.5,0,0,0,0,15h497a7.5,7.5,0,0,0,0-15ZM494.13,387.71H484a7.53,7.53,0,0,1-7.51-7.52v-14a7.52,7.52,0,0,1,7.51-7.52h5.63ZM273.67,227.82a22.5,22.5,0,0,1,14.82,5.57l74.93,65.5H188.7l-5.87-56.65h.45A82.15,82.15,0,0,0,230,227.82ZM115.53,159.5a67.76,67.76,0,1,1,19.84,47.9A67.3,67.3,0,0,1,115.53,159.5Zm-59.6,80.62A22.47,22.47,0,0,1,76,227.82h60.58a81.83,81.83,0,0,0,31,12.94l6,58.13H26ZM15.6,387.71l2.3-29,4.41,0a7.53,7.53,0,0,1,7.52,7.52v14a7.54,7.54,0,0,1-7.52,7.52Zm33.14,51.71a22.5,22.5,0,0,1-19.8-11.77L17.74,407A22.08,22.08,0,0,1,16,402.71h6.36a22.56,22.56,0,0,0,22.52-22.52v-14a22.56,22.56,0,0,0-22.56-22.52l-3.18,0,2.37-29.81h364.1l86,20.25a22.44,22.44,0,0,1,13.65,9.54H484a22.54,22.54,0,0,0-22.51,22.52v14A22.55,22.55,0,0,0,484,402.71h12.51L497,406,497,417a22.57,22.57,0,0,1-22.54,22.43H460.07a65.06,65.06,0,0,0-129.25,0H189.74a65.06,65.06,0,0,0-129.25,0ZM125.11,497a50.08,50.08,0,1,1,50.07-50.13v.1a50.07,50.07,0,0,1-50.07,50Zm41.56,0q2.29-1.92,4.46-4.06a64.63,64.63,0,0,0,18.61-38.52H330.82a64.57,64.57,0,0,0,18.61,38.52q2.16,2.15,4.46,4.06Zm228.78,0a50.07,50.07,0,0,1-50.07-50v-.13A50.06,50.06,0,1,1,395.45,497ZM142.13,343.75h22a7.5,7.5,0,0,0,0-15h-22a7.5,7.5,0,0,0,0,15Zm75.1,0h22a7.5,7.5,0,0,0,0-15h-22a7.5,7.5,0,0,0,0,15ZM125.11,416.9a30,30,0,1,0,21.24,8.79A29.82,29.82,0,0,0,125.11,416.9Zm10.63,40.65a15,15,0,1,1,4.4-10.62A14.93,14.93,0,0,1,135.74,457.55Z"/></svg>