<svg xmlns="http://www.w3.org/2000/svg" width="120" height="76" viewBox="0 0 120 76"><g fill="none" fill-rule="evenodd"><path fill="#F4F4F4" d="M111.998561,0 L8.0014394,0 C3.58236644,0 0,3.58906554 0,8.00758637 L0,67.9924136 C0,72.4148815 3.59136164,76 8.0014394,76 L111.998561,76 C116.417634,76 120,72.4109345 120,67.9924136 L120,8.00758637 C120,3.58511853 116.408638,0 111.998561,0 Z"/><g transform="translate(19 26.5)"><path fill="#227FBB" d="M.238897927 17.3883144C.158079522 17.3351618.713671439 15.1948044 2.03836757 10.456053 3.09238015 6.68560001 4.08365325 3.15861774 4.24119695 2.61831211L4.52763967 1.63593823 8.6691219 1.71155058C13.5106009 1.79994609 14.2558797 1.86391832 15.0347018 2.25796657 16.4154292 2.95655071 16.7955232 4.03140038 16.3197148 5.89179233 15.9144661 7.4762991 15.140263 8.55466257 13.6432955 9.61969455 13.359386 9.82168497 13.1113684 10.068615 13.0921451 10.1684309 13.0708086 10.2792216 13.2477325 10.5233172 13.5463534 10.7950858 13.8153904 11.0399314 14.101367 11.3676104 14.1818586 11.5232622 14.3984388 11.9420824 14.3608328 12.7812511 14.0603061 14.2356603 13.9129617 14.9487372 13.7647476 15.9678195 13.7309417 16.5002892L13.6694769 17.4684123 11.6648764 17.4684123C10.2452913 17.4684123 9.6236218 17.4317602 9.53468037 17.3428184 9.33907528 17.1472125 9.38331839 16.64825 9.72307219 15.2181773 10.1011777 13.6266793 10.1240595 13.0021148 9.81849309 12.6136488 9.41484003 12.100488 9.04875669 11.9895239 7.59955665 11.9410704 6.43029305 11.9019751 6.23533064 11.9195521 6.05798424 12.0800482 5.78222989 12.329603 5.5583944 12.974085 4.90446865 15.4013367L4.34757758 17.4684123 2.35169625 17.4667995C1.25396143 17.4659931.303202189 17.430593.238897927 17.3883023L.238897927 17.3883023.238897927 17.3883144zM10.7756976 8.50832589C11.7274727 8.22567719 12.1284218 7.60491689 12.1297164 6.41199084 12.1301398 6.05308066 12.0693578 5.80050393 11.9471416 5.65289182 11.6582419 5.30395859 10.7880707 5.18550523 9.15586628 5.27292703L7.73701017 5.34891837 7.53039817 6.04473461C7.21136213 7.11916295 6.9876228 8.15800367 7.02254676 8.40273431 7.04539719 8.56285944 7.15596838 8.64443296 7.42050616 8.69632762 8.00000474 8.8100072 10.1690939 8.6884654 10.7756976 8.50832589L10.7756976 8.50832589 10.7756976 8.50832589zM17.4885861 17.6952735C16.8546789 17.4685816 16.3563027 17.0453847 16.1469006 16.5559819 15.7488408 15.6256559 16.1148446 13.5578627 17.5679848 8.5273585 17.9159792 7.32266534 18.2007019 6.32519802 18.2007019 6.3107638 18.2007019 6.29632957 18.274713 6.21051046 18.3651708 6.12005263 18.4994208 5.98580226 18.8058541 5.95558313 20.0329517 5.95558313 20.8597727 5.95558313 21.6533304 6.00009134 21.7964147 6.05449384L22.0565694 6.15340254 21.7970134 7.07494907C21.1605428 9.33472952 20.5004291 12.0759074 20.386314 12.9330181 20.2826618 13.7115327 20.2866352 13.9184864 20.410189 14.1762744 20.6912551 14.762707 21.7115955 14.8867365 22.579949 14.4400256 23.5986887 13.9159483 23.7897768 13.4673948 25.4273878 7.75598233 25.667502 6.91854942 25.8506493 6.48335961 26.0550488 6.26454808L26.3436667 5.95558313 27.979552 5.95558313C29.2446613 5.95558313 29.6275533 5.98715093 29.6688863 6.0948633 29.7098243 6.20154551 27.6309172 13.9417283 26.754659 16.9451031L26.6172476 17.4160821 24.8683601 17.4684123C23.9064703 17.497196 23.1195491 17.4913417 23.1196459 17.4554094 23.1197426 17.419473 23.1911477 17.1879045 23.2783276 16.9408132 23.6319943 15.9384128 23.1910428 15.8755292 21.9030122 16.7446831 20.6302746 17.6035174 20.0966801 17.8069754 18.9947884 17.8535742 18.2498508 17.8850755 17.9233884 17.850772 17.4885861 17.6952755L17.4885861 17.6952755 17.4885861 17.6952735zM29.1162249 17.3849175C29.023221 17.3258078 29.56168 15.2486323 31.1574257 9.51069802L33.3249541 1.71676787 36.9878378 1.74743051C41.5571827 1.78567919 42.4914277 1.8667467 43.3748364 2.30164622 44.1012165 2.659242 44.4470492 2.97903262 44.7703859 3.59210004 45.3135905 4.62205242 45.3045247 5.81668195 44.7410659 7.45596418 43.8750044 9.97560903 42.2583956 11.6323151 40.1274104 12.1840472 39.7820252 12.2734708 38.6987731 12.3944542 37.7201831 12.4528987 34.487274 12.6459766 34.6816642 12.609635 34.5085019 13.0533604 34.4257491 13.2654205 34.1028055 14.345558 33.7908529 15.4536669L33.2236666 17.4684123 31.2331086 17.4667995C30.138303 17.4659931 29.1857047 17.4290649 29.1162249 17.3849054L29.1162249 17.3849175zM38.5415328 8.99623892C39.6068691 8.85895051 40.1665481 8.53034816 40.5220453 7.83343524 40.9040482 7.0845571 41.00487 6.2693279 40.7614316 5.89779382 40.4296783 5.39147514 39.9754236 5.28085577 38.2637969 5.28957476 37.4115024 5.29390906 36.6722646 5.33957241 36.6210453 5.39103566 36.5038539 5.50878344 35.7839329 8.35441796 35.7839329 8.69989182 35.7839329 8.84069404 35.8153314 8.98729414 35.853709 9.02566982 35.952896 9.12485672 37.6911756 9.10582209 38.5415328 8.99623892L38.5415328 8.99623892 38.5415328 8.99623892zM44.523218 17.7384229C43.2907349 17.2221576 42.9713979 16.3689619 43.3730362 14.6654071 43.9344831 12.2840284 45.1712904 11.4876524 49.4171675 10.7736079 51.9808348 10.3424661 52.6208414 10.0273545 52.8052164 9.10547535 52.9416137 8.42348854 52.3571265 8.05059168 51.1499093 8.04940831 50.3962695 8.04860193 50.1135684 8.15854797 49.4597787 8.70632473L48.9328893 9.14777609 47.5754635 9.18257749C46.0021473 9.22291469 45.5175081 9.16030322 45.5175081 8.91670756 45.5175081 8.63288558 46.1345551 7.76580607 46.7114442 7.23897507 47.3309969 6.67318779 48.1509031 6.23964299 49.0386522 6.00841319 50.9032091 5.52275803 54.112574 5.57921479 55.2155381 6.11707305 55.805916 6.40496726 56.3306847 6.88310292 56.5805983 7.36082531 56.8171543 7.81301364 56.732575 8.28223072 55.617884 12.701633 55.0707584 14.8708166 54.62311 16.8307361 54.62311 17.0570087L54.62311 17.4684123 53.3294428 17.4684123C52.6179243 17.4684123 51.8182703 17.4982242 51.5524327 17.5346625L51.0690918 17.6009108 50.8564894 17.1049279C50.6066967 16.5221884 50.5774029 16.5223618 49.2613102 17.1143424 47.8319532 17.757262 47.3081844 17.900566 46.1978116 17.9525131 45.2529667 17.9967169 45.0901261 17.9758982 44.523218 17.738431L44.523218 17.738429 44.523218 17.7384229zM50.1485492 15.2929793C50.8702765 14.9737249 51.6855077 13.6671132 51.6902734 12.8219814L51.6925716 12.4143638 51.0275571 12.4764632C50.2919057 12.5451588 48.7358944 13.0469799 48.165547 13.3994733 47.6839984 13.6970884 47.4019202 14.1765365 47.40342 14.6948682 47.4048312 15.1919841 47.4780042 15.3279682 47.8230286 15.4749553 48.216982 15.6427895 49.6029235 15.5343352 50.1485492 15.2929793L50.1485492 15.2929793zM55.912822 22.4263562C55.4935945 22.3318161 55.4775173 22.1753157 55.7690462 21.026924 56.1597298 19.4879496 56.1340466 19.5199669 57.098162 19.3700768 58.1388332 19.2082885 58.6035184 18.9796028 58.8355969 18.5150346 59.0926511 18.0004706 59.0742071 15.9799092 58.7629904 10.5607152 58.5898039 7.54502898 58.5467189 6.17724522 58.6220571 6.08641041 58.7014333 5.99070304 59.2311471 5.95558313 60.5952598 5.95558313L62.4599578 5.95558313 62.4925275 9.4566725C62.5147494 11.8451998 62.5620759 12.9946941 62.6414581 13.0739795 62.8319535 13.2642391 63.5322291 12.0800079 66.4021074 6.71438379L66.8079631 5.95558313 68.4543556 5.95558313C69.3598713 5.95558313 70.1230284 5.99163643 70.1502639 6.03570113 70.2026787 6.12051227 67.707943 10.5676138 65.2045709 14.8518605 61.646549 20.9410283 60.9773151 21.7801728 59.3082049 22.2452229 58.7632424 22.3970624 56.3530618 22.5256379 55.912822 22.4263562L55.912822 22.4263562 55.912822 22.4263562z" opacity=".938"/><polygon fill="#1AAF5D" points="71.338 21.03 76.231 3.106 80.889 12.369"/><polygon fill="#F59D00" points="68.31 21.095 73.203 3.172 77.861 12.434"/><path fill="#000" d="M81.7926034,2.7709528 L81.7926034,1.54936914 L81.3279087,1.54936914 L81.3279087,1.3363841 L82.5002064,1.3363841 L82.5002064,1.54936914 L82.0319916,1.54936914 L82.0319916,2.7709528 L81.7926034,2.7709528 Z M82.6603858,2.7709528 L82.6603858,1.3363841 L83.0124272,1.3363841 L83.3750292,2.48227884 L83.7253105,1.3363841 L84.0703116,1.3363841 L84.0703116,2.7709528 L83.8520455,2.7709528 L83.8520455,1.56697116 L83.4824022,2.7709528 L83.2658971,2.7709528 L82.8804111,1.54936914 L82.8804111,2.7709528 L82.6603858,2.7709528 Z"/><path stroke="#000" stroke-width=".5" d="M84.7907212,2.02746813 C84.7907212,3.12686063 83.8994881,4.01809407 82.8000954,4.01809407 C81.7007027,4.01809407 80.8094685,3.12686063 80.8094685,2.02746813 C80.8094685,0.928075527 81.7007027,0.0368417728 82.8000954,0.0368417728 C83.8994881,0.0368417728 84.7907212,0.928075527 84.7907212,2.02746813 L84.7907212,2.02746813 Z" opacity=".938"/></g></g></svg>