<svg xmlns="http://www.w3.org/2000/svg" fill-rule="evenodd" stroke-linejoin="round" stroke-miterlimit="2" clip-rule="evenodd" viewBox="0 0 101 101"><path d="M93.877,73.204c2.907,2.777 4.718,6.692 4.718,11.03l-0,11.356c-0,2.154 -1.746,3.9 -3.9,3.9l-22.712,0c-2.154,0 -3.9,-1.746 -3.9,-3.9l-0,-11.356c-0,-4.338 1.811,-8.253 4.718,-11.03c2.711,2.672 6.433,4.321 10.538,4.321c4.104,0 7.826,-1.649 10.538,-4.321Zm-67.931,-19.426l-0,28.485l38.337,0c-0.066,0.648 -0.1,1.306 -0.1,1.971l-0,1.949l-40.197,0c-1.082,0 -1.96,-0.878 -1.96,-1.96l-0,-30.445l3.92,0Zm57.393,-2.393c-6.138,0 -11.12,4.983 -11.12,11.12c-0,6.138 4.982,11.12 11.12,11.12c6.137,0 11.12,-4.982 11.12,-11.12c-0,-6.137 -4.983,-11.12 -11.12,-11.12Zm-30.914,-0.781l-0,-1.199c-0,-1.082 0.879,-1.96 1.96,-1.96c1.082,0 1.96,0.878 1.96,1.96l-0,1.199l2.978,0c1.082,0 1.96,0.878 1.96,1.96c-0,1.082 -0.878,1.96 -1.96,1.96l-2.978,0l-0,3.98l0.167,0c3.18,0 5.758,2.578 5.758,5.758l-0,0.303c-0,3.181 -2.578,5.759 -5.758,5.759l-0.167,0l-0,0.89c-0,1.082 -0.878,1.96 -1.96,1.96c-1.081,0 -1.96,-0.878 -1.96,-1.96l-0,-0.89l-2.978,0c-1.081,0 -1.96,-0.878 -1.96,-1.96c-0,-1.082 0.879,-1.96 1.96,-1.96l2.978,0l-0,-3.98l-0.166,0c-3.18,0 -5.759,-2.578 -5.759,-5.759l-0,-0.302c-0,-3.181 2.579,-5.759 5.759,-5.759l0.166,0Zm3.92,11.82l-0,3.98l0.167,0c1.015,0 1.838,-0.823 1.838,-1.839l-0,-0.303c-0,-1.015 -0.823,-1.838 -1.838,-1.838l-0.167,0Zm-3.92,-7.9l-0.166,0c-1.015,0 -1.839,0.823 -1.839,1.839l-0,0.302c-0,1.016 0.824,1.839 1.839,1.839l0.166,0l-0,-3.98Zm-13.288,-28.946l-0,13.653l0.716,0c1.303,0 2.552,0.517 3.473,1.438c0.922,0.921 1.439,2.171 1.439,3.473l-0,0.824c-0,1.303 -0.517,2.552 -1.439,3.473c-0.921,0.921 -2.17,1.439 -3.473,1.439l-31.734,0c-1.303,0 -2.552,-0.518 -3.473,-1.439c-0.921,-0.921 -1.439,-2.17 -1.439,-3.473l-0,-0.824c-0,-1.302 0.518,-2.552 1.439,-3.473c0.921,-0.921 2.17,-1.438 3.473,-1.438l0.749,0l-0,-13.653l-2.542,0c-1.616,0 -3.066,-0.991 -3.653,-2.497c-0.586,-1.506 -0.189,-3.217 1.002,-4.31l17.676,-16.229c1.499,-1.377 3.803,-1.377 5.302,0l17.676,16.229c1.191,1.093 1.589,2.804 1.002,4.31c-0.586,1.506 -2.037,2.497 -3.653,2.497l-2.541,0Zm3.9,3.372l40.302,0c1.082,0 1.96,0.877 1.96,1.96l-0,16.702c-0.642,-0.083 -1.296,-0.127 -1.96,-0.127c-0.664,0 -1.318,0.044 -1.96,0.127l-0,-14.742l-38.342,0l-0,-3.92Zm-28.249,-3.372l-0,13.653l6.254,0l-0,-13.653l-6.254,0Zm12.174,0l-0,13.653l6.255,0l-0,-13.653l-6.255,0Z"/></svg>