<svg xmlns="http://www.w3.org/2000/svg" enable-background="new 0 0 64 64" viewBox="0 0 64 64"><path fill="#231f20" d="M56.2,9H7.8C6.3,9,5,10.3,5,11.8v6.3C5,19.7,6.3,21,7.8,21H9v31.1c0,1.6,1.3,2.9,2.9,2.9h40.3
			c1.6,0,2.9-1.3,2.9-2.9V21h1.2c1.6,0,2.8-1.3,2.8-2.8v-6.3C59,10.3,57.7,9,56.2,9z M53,52.1c0,0.5-0.4,0.9-0.9,0.9H11.9
			c-0.5,0-0.9-0.4-0.9-0.9V21h42V52.1z M57,18.2c0,0.5-0.4,0.8-0.8,0.8H54H10H7.8C7.4,19,7,18.6,7,18.2v-6.3C7,11.4,7.4,11,7.8,11
			h48.3c0.5,0,0.8,0.4,0.8,0.8V18.2z"/><path fill="#231f20" d="M20.9,33.2l6.9,4.4c0.6,0.4,1.3,0.4,2,0.1c0.6-0.4,1.1-1,1.1-1.8v-1.3h4.4c1.6,0,2.9,1.4,2.9,3.2
			c0,1.7-1.3,3.2-2.9,3.2h-5.8c-1.6,0-2.9,1.4-2.9,3.1s1.3,3.1,2.9,3.1h5.8c4.8,0,8.8-4.2,8.8-9.3c0-5.1-3.9-9.3-8.8-9.3h-4.4V27
			c0-0.8-0.4-1.5-1.1-1.8c-0.6-0.3-1.4-0.3-2,0.1l-6.9,4.4c-0.6,0.4-0.9,1-0.9,1.7S20.3,32.8,20.9,33.2z M22,31.4l6.8-4.4v2.3
			c0,0.6,0.4,1,1,1h5.4c3.7,0,6.8,3.3,6.8,7.3S39,45,35.2,45h-5.8c-0.5,0-0.9-0.5-0.9-1.1s0.4-1.1,0.9-1.1h5.8
			c2.7,0,4.9-2.3,4.9-5.2s-2.2-5.2-4.9-5.2h-5.4c-0.6,0-1,0.4-1,1l0.1,2.4L22,31.5C22,31.5,22,31.4,22,31.4z"/></svg>