<svg xmlns="http://www.w3.org/2000/svg" enable-background="new 0 0 1024 466" viewBox="0 0 1024 466"><path fill="#3d3d3c" d="M98.1 340.7h6.3l-5.9 24.5c-.9 3.6-.7 6.4.5 8.2 1.2 1.8 3.4 2.7 6.7 2.7 3.2 0 5.9-.9 8-2.7 2.1-1.8 3.5-4.6 4.4-8.2l5.9-24.5h6.4l-6 25.1c-1.3 5.4-3.6 9.5-7 12.2-3.3 2.7-7.7 4.1-13.1 4.1-5.4 0-9.1-1.3-11.1-4-2-2.7-2.4-6.8-1.1-12.2L98.1 340.7zM129.5 381l10-41.9 19 24.6c.5.7 1 1.4 1.5 2.2.5.8 1 1.7 1.6 2.7l6.7-27.9h5.9l-10 41.8-19.4-25.1c-.5-.7-1-1.4-1.5-2.1-.5-.8-.9-1.5-1.2-2.4l-6.7 28H129.5zM173.7 381l9.6-40.3h6.4l-9.6 40.3H173.7zM189.2 381l9.6-40.3h21.9l-1.3 5.6h-15.5l-2.4 10h15.5l-1.4 5.7h-15.5l-4.5 18.9H189.2zM218.2 381l9.6-40.3h6.4l-9.6 40.3H218.2zM233.7 381l9.6-40.3h21.9l-1.3 5.6h-15.5l-2.4 10.1h15.5l-1.4 5.7h-15.5l-3.1 13H257l-1.4 5.9H233.7zM263 381l9.6-40.3h8.6c5.6 0 9.5.3 11.6.9 2.1.6 3.9 1.5 5.3 2.9 1.8 1.8 3 4.1 3.5 6.8.5 2.8.3 6-.5 9.5-.9 3.6-2.2 6.7-4 9.5-1.8 2.8-4.1 5-6.8 6.8-2 1.4-4.2 2.3-6.6 2.9-2.3.6-5.8.9-10.4.9h-1.7H263zM270.8 375h5.4c2.9 0 5.2-.2 6.8-.6 1.6-.4 3-1.1 4.3-2 1.8-1.3 3.3-2.9 4.5-4.9 1.2-1.9 2.1-4.2 2.7-6.8.6-2.6.8-4.8.5-6.7-.3-1.9-1-3.6-2.2-4.9-.9-1-2-1.6-3.5-2-1.5-.4-3.8-.6-7.1-.6h-2.3-2.3L270.8 375zM330.5 362.9l-4.3 18.1h-6l9.6-40.3h9.7c2.9 0 4.9.2 6.2.5 1.3.3 2.3.8 3.1 1.6 1 .9 1.7 2.2 2 3.8.3 1.6.2 3.3-.2 5.2-.5 1.9-1.2 3.7-2.3 5.3-1.1 1.6-2.4 2.9-3.8 3.8-1.2.7-2.5 1.3-3.9 1.6-1.4.3-3.6.5-6.4.5h-1.3H330.5zM332.2 357.5h1.6c3.5 0 6-.4 7.4-1.2 1.4-.8 2.3-2.2 2.8-4.2.5-2.1.2-3.7-.8-4.5-1.1-.9-3.3-1.3-6.6-1.3h-1.6L332.2 357.5zM372.3 381l-2-10.4h-15.6l-7 10.4h-6.7l29-41.9 9 41.9H372.3zM358.5 365.1h10.9l-1.8-9.2c-.1-.6-.2-1.3-.2-2-.1-.8-.1-1.6-.1-2.5-.4.9-.8 1.7-1.3 2.5-.4.8-.8 1.5-1.2 2.1L358.5 365.1zM388.2 381l4.4-18.4-8-21.8h6.7l5 13.7c.1.4.2.8.4 1.4.2.6.3 1.2.5 1.8.4-.6.8-1.2 1.2-1.8.4-.6.8-1.1 1.2-1.6l11.7-13.5h6.4L399 362.5l-4.4 18.4H388.2zM449.1 361.1c0-.3.1-1.2.3-2.6.1-1.2.2-2.1.3-2.9-.4.9-.8 1.8-1.3 2.8-.5.9-1.1 1.9-1.8 2.8l-15.4 21.5-5-21.9c-.2-.9-.4-1.8-.5-2.6-.1-.8-.2-1.7-.2-2.5-.2.8-.5 1.7-.8 2.7-.3.9-.7 1.9-1.2 2.9l-9 19.8h-5.9l19.3-42 5.5 25.4c.1.4.2 1.1.3 2 .1.9.3 2.1.5 3.5.7-1.2 1.6-2.6 2.8-4.4.3-.5.6-.8.7-1.1l17.4-25.4-.6 42h-5.9L449.1 361.1zM459.7 381l9.6-40.3h21.9l-1.3 5.6h-15.5l-2.4 10.1h15.5l-1.4 5.7h-15.5l-3.1 13H483l-1.4 5.9H459.7zM488.9 381l10-41.9 19 24.6c.5.7 1 1.4 1.5 2.2.5.8 1 1.7 1.6 2.7l6.7-27.9h5.9l-10 41.8-19.4-25.1c-.5-.7-1-1.4-1.5-2.1-.5-.8-.9-1.5-1.2-2.4l-6.7 28H488.9zM554 346.2l-8.3 34.7h-6.4l8.3-34.7h-10.4l1.3-5.6h27.2l-1.3 5.6H554zM560.7 372.9l5.7-2.4c.1 1.8.6 3.2 1.7 4.1 1.1.9 2.6 1.4 4.6 1.4 1.9 0 3.5-.5 4.9-1.6 1.4-1.1 2.3-2.5 2.7-4.3.6-2.4-.8-4.5-4.2-6.3-.5-.3-.8-.5-1.1-.6-3.8-2.2-6.2-4.1-7.2-5.9-1-1.8-1.2-3.9-.6-6.4.8-3.3 2.5-5.9 5.2-8 2.7-2 5.7-3.1 9.3-3.1 2.9 0 5.2.6 6.9 1.7 1.7 1.1 2.6 2.8 2.9 4.9l-5.6 2.6c-.5-1.3-1.1-2.2-1.9-2.8-.8-.6-1.8-.9-3-.9-1.7 0-3.2.5-4.4 1.4-1.2.9-2 2.1-2.4 3.7-.6 2.4 1.1 4.7 5 6.8.3.2.5.3.7.4 3.4 1.8 5.7 3.6 6.7 5.4 1 1.8 1.2 3.9.6 6.6-.9 3.8-2.8 6.8-5.7 9.1-2.9 2.2-6.3 3.4-10.3 3.4-3.3 0-5.9-.8-7.7-2.4C561.5 378.1 560.6 375.8 560.7 372.9zM607.8 381l9.6-40.3h6.4l-9.6 40.3H607.8zM623.4 381l10-41.9 19 24.6c.5.7 1 1.4 1.5 2.2.5.8 1 1.7 1.6 2.7l6.7-27.9h5.9l-10 41.8-19.4-25.1c-.5-.7-1-1.4-1.5-2.1-.5-.8-.9-1.5-1.2-2.4l-6.7 28H623.4zM688.5 346.2l-8.3 34.7h-6.4l8.3-34.7h-10.4l1.3-5.6h27.2l-1.3 5.6H688.5zM695.4 381l9.6-40.3H727l-1.3 5.6h-15.5l-2.4 10.1h15.5l-1.4 5.7h-15.5l-3.1 13h15.5l-1.4 5.9H695.4zM734.9 362.9l-4.3 18h-6l9.6-40.3h8.9c2.6 0 4.6.2 5.9.5 1.4.3 2.5.9 3.3 1.7 1 1 1.6 2.2 1.9 3.8.3 1.5.2 3.2-.2 5.1-.8 3.2-2.1 5.8-4.1 7.6-2 1.8-4.5 2.9-7.5 3.3l9.1 18.3h-7.2l-8.7-18H734.9zM736.5 357.8h1.2c3.4 0 5.7-.4 7-1.2 1.3-.8 2.2-2.2 2.7-4.3.5-2.2.3-3.8-.7-4.7-1-.9-3.1-1.4-6.3-1.4h-1.2L736.5 357.8zM755.4 381l9.6-40.3h21.9l-1.3 5.6h-15.5l-2.4 10h15.5l-1.4 5.7h-15.5l-4.5 18.9H755.4zM808.2 381l-2-10.4h-15.6l-7 10.4h-6.7l29-41.9 9 41.9H808.2zM794.3 365.1h10.9l-1.8-9.2c-.1-.6-.2-1.3-.2-2-.1-.8-.1-1.6-.1-2.5-.4.9-.8 1.7-1.3 2.5-.4.8-.8 1.5-1.2 2.1L794.3 365.1zM856.5 350.5c-1.4-1.6-3.1-2.8-4.9-3.5-1.8-.8-3.8-1.2-6.1-1.2-4.3 0-8.1 1.4-11.5 4.2-3.4 2.8-5.6 6.5-6.7 11-1 4.3-.6 7.9 1.4 10.8 1.9 2.8 4.9 4.2 8.9 4.2 2.3 0 4.6-.4 6.9-1.3 2.3-.8 4.6-2.1 7-3.8l-1.8 7.4c-2 1.3-4.1 2.2-6.3 2.8-2.2.6-4.4.9-6.8.9-3 0-5.7-.5-8-1.5-2.3-1-4.2-2.5-5.7-4.5-1.5-1.9-2.4-4.2-2.8-6.8-.4-2.6-.3-5.4.5-8.4.7-3 1.9-5.7 3.5-8.3 1.6-2.6 3.7-4.9 6.1-6.8 2.4-2 5-3.5 7.8-4.5 2.8-1 5.6-1.5 8.5-1.5 2.3 0 4.4.3 6.4 1 1.9.7 3.7 1.7 5.3 3.1L856.5 350.5zM857.1 381l9.6-40.3h21.9l-1.3 5.6h-15.5l-2.4 10.1h15.5l-1.4 5.7H868l-3.1 13h15.5L879 381H857.1z"/><path fill="#70706e" d="M740.7 305.6h-43.9l61-220.3h43.9L740.7 305.6zM717.9 92.2c-3-4.2-7.7-6.3-14.1-6.3H462.6l-11.9 43.2h43.9v0h175.5l-12.8 46.1H481.8l0-.1h-43.9l-36.4 131.5h43.9l24.4-88.2h197.3c6.2 0 12-2.1 17.4-6.3 5.4-4.2 9-9.4 10.7-15.6l24.4-88.2C721.5 101.7 720.9 96.4 717.9 92.2zM375.9 291.8c-2.4 8.7-10.4 14.8-19.4 14.8H130.2c-6.2 0-10.8-2.1-13.8-6.3-3-4.2-3.7-9.4-1.9-15.6l55.2-198.8h43.9l-49.3 177.6h175.6l49.3-177.6h43.9L375.9 291.8z"/><polygon fill="#098041" points="877.5 85.7 933 196.1 816.3 306.5"/><polygon fill="#e97626" points="838.5 85.7 894 196.1 777.2 306.5"/></svg>